<svg width="308" height="96" viewBox="0 0 308 96" fill="none" xmlns="http://www.w3.org/2000/svg">
<path d="M21.0487 67.2532C16.9316 67.2532 13.3015 66.3599 10.1583 64.5701C7.01511 62.7835 4.53682 60.2918 2.72343 57.0949C0.906692 53.898 0 50.241 0 46.1239C0 42.0069 0.906692 38.3499 2.72343 35.1529C4.53682 31.956 7.01511 29.4643 10.1583 27.6778C13.2981 25.8912 16.9316 24.9946 21.0487 24.9946C26.1967 24.9946 30.5287 26.3345 34.0513 29.0177C37.574 31.7008 39.8206 35.3981 40.7978 40.1095H29.8268C29.2862 38.1585 28.2149 36.6305 26.6164 35.519C25.018 34.4108 23.1341 33.8533 20.9681 33.8533C18.0969 33.8533 15.6589 34.938 13.6541 37.104C11.6493 39.27 10.6486 42.2789 10.6486 46.1239C10.6486 49.969 11.6493 52.9778 13.6541 55.1438C15.6589 57.3132 18.0969 58.3945 20.9681 58.3945C23.1341 58.3945 25.018 57.8538 26.6164 56.7691C28.2149 55.6878 29.2828 54.1431 29.8268 52.1383H40.7978C39.8239 56.6886 37.574 60.3455 34.0513 63.1093C30.5287 65.873 26.1967 67.2532 21.0487 67.2532Z" fill="white"/>
<path d="M67.3704 67.2532C63.4683 67.2532 59.9624 66.3599 56.846 64.5701C53.7297 62.7835 51.2648 60.3019 49.4515 57.1352C47.6347 53.9651 46.728 50.2947 46.728 46.1239C46.728 41.9531 47.6482 38.2827 49.4918 35.1126C51.332 31.9426 53.8103 29.4643 56.9266 27.6778C60.043 25.8912 63.5488 24.9946 67.451 24.9946C71.3531 24.9946 74.7784 25.8879 77.8947 27.6778C81.0111 29.4643 83.4759 31.9459 85.2893 35.1126C87.1027 38.2827 88.0127 41.9531 88.0127 46.1239C88.0127 50.2947 87.106 53.9651 85.2893 57.1352C83.4726 60.3052 80.9943 62.7835 77.8544 64.5701C74.7112 66.3566 71.2188 67.2532 67.3704 67.2532ZM67.3704 58.2333C70.0804 58.2333 72.4344 57.2158 74.4392 55.1841C76.444 53.1525 77.4447 50.1335 77.4447 46.1239C77.4447 42.1143 76.4407 39.0954 74.4392 37.0637C72.4344 35.032 70.1039 34.0145 67.451 34.0145C64.7981 34.0145 62.3164 35.032 60.3385 37.0637C58.3606 39.0954 57.3733 42.1177 57.3733 46.1239C57.3733 50.1301 58.3606 53.1525 60.3385 55.1841C62.3164 57.2158 64.657 58.2333 67.367 58.2333H67.3704Z" fill="white"/>
<path d="M95.2431 66.2794V25.9719H104.428L105.24 32.799C106.486 30.4147 108.289 28.5207 110.643 27.1103C113.001 25.7033 115.775 24.998 118.972 24.998C123.955 24.998 127.83 26.5696 130.594 29.7128C133.358 32.856 134.738 37.46 134.738 43.5281V66.2828H124.334V44.502C124.334 41.0364 123.629 38.3802 122.222 36.5365C120.812 34.6963 118.619 33.7728 115.64 33.7728C112.662 33.7728 110.318 34.8038 108.447 36.8623C106.577 38.9208 105.643 41.792 105.643 45.4759V66.2794H95.2397H95.2431Z" fill="white"/>
<path d="M142.619 66.2794V25.9719H151.804L152.616 32.799C153.862 30.4147 155.665 28.5207 158.019 27.1103C160.377 25.7033 163.151 24.998 166.348 24.998C171.331 24.998 175.206 26.5696 177.97 29.7128C180.734 32.856 182.114 37.46 182.114 43.5281V66.2828H171.71V44.502C171.71 41.0364 171.005 38.3802 169.598 36.5365C168.188 34.6963 165.995 33.7728 163.016 33.7728C160.038 33.7728 157.694 34.8038 155.823 36.8623C153.953 38.9208 153.019 41.792 153.019 45.4759V66.2794H142.616H142.619Z" fill="white"/>
<path d="M209.584 67.2532C205.52 67.2532 201.917 66.3868 198.774 64.654C195.631 62.9212 193.166 60.4832 191.379 57.34C189.593 54.2002 188.696 50.5667 188.696 46.4497C188.696 42.3326 189.576 38.5681 191.336 35.3175C193.095 32.0668 195.533 29.5348 198.65 27.7181C201.766 25.9047 205.437 24.9946 209.661 24.9946C213.614 24.9946 217.109 25.861 220.145 27.5938C223.177 29.33 225.548 31.6974 227.254 34.7063C228.96 37.7118 229.813 41.0599 229.813 44.7437C229.813 45.3415 229.8 45.9627 229.773 46.6142C229.746 47.2657 229.702 47.944 229.652 48.6459H199.016C199.231 51.7891 200.329 54.2539 202.307 56.0404C204.285 57.827 206.682 58.7236 209.5 58.7236C211.612 58.7236 213.389 58.2501 214.822 57.2997C216.256 56.3527 217.328 55.1203 218.033 53.6024H228.597C227.839 56.1479 226.579 58.465 224.82 60.5504C223.06 62.6358 220.891 64.2745 218.318 65.4667C215.743 66.6588 212.834 67.2532 209.58 67.2532H209.584ZM209.664 33.447C207.119 33.447 204.869 34.1657 202.918 35.5996C200.967 37.0368 199.721 39.2163 199.18 42.1412H219.252C219.091 39.4883 218.113 37.376 216.327 35.8011C214.54 34.2295 212.317 33.4437 209.664 33.4437V33.447Z" fill="#D94D14"/>
<path d="M256.308 67.2532C252.191 67.2532 248.561 66.3599 245.418 64.5701C242.275 62.7835 239.797 60.2918 237.983 57.0949C236.166 53.898 235.26 50.241 235.26 46.1239C235.26 42.0069 236.166 38.3499 237.983 35.1529C239.797 31.956 242.275 29.4643 245.418 27.6778C248.558 25.8912 252.191 24.9946 256.308 24.9946C261.456 24.9946 265.788 26.3345 269.311 29.0177C272.834 31.7008 275.08 35.3981 276.058 40.1095H265.087C264.546 38.1585 263.475 36.6305 261.876 35.519C260.278 34.4108 258.394 33.8533 256.228 33.8533C253.357 33.8533 250.919 34.938 248.914 37.104C246.909 39.27 245.908 42.2789 245.908 46.1239C245.908 49.969 246.909 52.9778 248.914 55.1438C250.919 57.3132 253.357 58.3945 256.228 58.3945C258.394 58.3945 260.278 57.8538 261.876 56.7691C263.475 55.6878 264.543 54.1431 265.087 52.1383H276.058C275.084 56.6886 272.834 60.3455 269.311 63.1093C265.788 65.873 261.456 67.2532 256.308 67.2532Z" fill="white"/>
<path d="M300.682 66.2794C296.458 66.2794 293.07 65.2518 290.524 63.1899C287.979 61.1314 286.706 57.4744 286.706 52.2189V34.6661H279.798V25.9719H286.706L287.925 15.1621H297.109V25.9719H308V34.6661H297.109V52.2995C297.109 54.2506 297.529 55.5905 298.369 56.3226C299.208 57.0546 300.656 57.4207 302.718 57.4207H307.755V66.2794H300.686H300.682Z" fill="white"/>
<path d="M150.726 91.6131V76.2598H153.919V82.0324H154.017C154.158 81.7234 154.359 81.4078 154.628 81.0854C154.896 80.763 155.246 80.4944 155.679 80.2761C156.112 80.0578 156.649 79.9503 157.294 79.9503C158.134 79.9503 158.909 80.1686 159.618 80.6052C160.326 81.0417 160.894 81.6999 161.32 82.5764C161.744 83.4529 161.958 84.551 161.958 85.8707C161.958 87.1904 161.754 88.2382 161.341 89.1214C160.928 90.0046 160.37 90.6695 159.662 91.1228C158.953 91.5761 158.164 91.8011 157.287 91.8011C156.669 91.8011 156.142 91.7004 155.709 91.4955C155.276 91.2907 154.923 91.0321 154.648 90.7198C154.373 90.4075 154.164 90.0919 154.02 89.7728H153.876V91.6164H150.729L150.726 91.6131ZM153.852 85.8573C153.852 86.5423 153.946 87.1401 154.137 87.6505C154.329 88.1609 154.601 88.5572 154.96 88.8393C155.319 89.1214 155.756 89.2624 156.273 89.2624C156.79 89.2624 157.234 89.118 157.593 88.8292C157.952 88.5404 158.228 88.1408 158.416 87.6304C158.604 87.1166 158.698 86.5289 158.698 85.8573C158.698 85.1856 158.604 84.608 158.419 84.1043C158.234 83.6006 157.962 83.2044 157.603 82.9189C157.244 82.6335 156.8 82.4924 156.277 82.4924C155.753 82.4924 155.316 82.6301 154.96 82.9055C154.604 83.1809 154.329 83.5704 154.141 84.0741C153.949 84.5778 153.855 85.1722 153.855 85.8573H153.852Z" fill="white"/>
<path d="M165.666 95.9313C165.26 95.9313 164.884 95.901 164.531 95.8372C164.179 95.7734 163.886 95.6962 163.658 95.6022L164.377 93.2179C164.753 93.3321 165.089 93.3959 165.391 93.4059C165.693 93.416 165.955 93.3455 166.177 93.1977C166.398 93.0466 166.58 92.7914 166.721 92.4321L166.909 91.9452L162.778 80.1011H166.136L168.521 88.5568H168.642L171.049 80.1011H174.431L169.955 92.8586C169.74 93.4765 169.448 94.0205 169.082 94.4805C168.715 94.9406 168.249 95.2999 167.691 95.5518C167.13 95.8036 166.455 95.9313 165.666 95.9313Z" fill="white"/>
<path d="M239.907 18.6679C238.719 19.6082 236.969 19.3429 235.988 18.1877C223.244 3.17689 200.691 1.25941 185.596 13.9027C184.435 14.8766 182.665 14.843 181.654 13.7147C180.603 12.5427 180.734 10.7461 181.929 9.73866C199.395 -4.9867 225.582 -2.76026 240.31 14.7053C241.318 15.8974 241.143 17.694 239.911 18.6713L239.907 18.6679Z" fill="#D94D14"/>
<path d="M230.125 25.656C228.963 26.6365 227.213 26.4149 226.189 25.2899C217.656 15.9342 203.129 15.182 193.676 23.6075C192.541 24.6183 190.778 24.6586 189.723 23.5639C188.669 22.4691 188.699 20.6222 189.861 19.5744C201.615 8.97619 219.802 9.91647 230.4 21.6699C231.448 22.8318 231.331 24.6351 230.125 25.6493V25.656Z" fill="#D94D14"/>
<path d="M187.296 91.7509V81.6262H185.526V78.8423H187.296V77.3312C187.296 75.7696 187.689 74.6581 188.481 73.9999C189.27 73.3417 190.341 73.0093 191.695 73.0093H193.125V75.8469H192.215C191.641 75.8469 191.235 75.9611 190.993 76.1861C190.751 76.411 190.627 76.7939 190.627 77.3312V78.8423H193.411V81.6262H190.627V91.7509H187.296ZM196.04 91.7509V73.0093H199.371V91.7509H196.04Z" fill="white"/>
<path d="M208.405 92.0629C207.102 92.0629 205.95 91.7842 204.942 91.2301C203.935 90.676 203.146 89.8935 202.575 88.8861C202.001 87.8787 201.715 86.7168 201.715 85.397C201.715 84.0773 201.997 82.8717 202.562 81.8307C203.126 80.7897 203.905 79.977 204.906 79.3961C205.903 78.8151 207.078 78.5229 208.432 78.5229C209.698 78.5229 210.816 78.8017 211.79 79.3558C212.76 79.9099 213.519 80.6688 214.067 81.6326C214.614 82.5963 214.886 83.6676 214.886 84.8463C214.886 85.0377 214.883 85.2358 214.872 85.444C214.862 85.6522 214.849 85.8705 214.832 86.0955H205.02C205.09 87.1029 205.439 87.8921 206.074 88.463C206.709 89.0372 207.475 89.3227 208.378 89.3227C209.056 89.3227 209.624 89.1715 210.084 88.866C210.544 88.5637 210.886 88.1675 211.111 87.6805H214.496C214.255 88.4966 213.848 89.2387 213.287 89.907C212.723 90.5752 212.028 91.0991 211.205 91.4819C210.379 91.8648 209.449 92.0562 208.408 92.0562L208.405 92.0629ZM208.432 81.2363C207.616 81.2363 206.897 81.468 206.272 81.9247C205.648 82.3848 205.248 83.0833 205.073 84.0202H211.504C211.451 83.1706 211.138 82.4922 210.567 81.9885C209.993 81.4848 209.285 81.2329 208.432 81.2329V81.2363Z" fill="white"/>
<path d="M214.94 91.7504L219.625 85.2961L214.94 78.8418H218.506L221.787 83.4223L225.041 78.8418H228.634L223.923 85.2961L228.634 91.7504H225.041L221.787 87.1699L218.506 91.7504H214.94Z" fill="white"/>
<path d="M235.381 92.063C234.078 92.063 232.926 91.7876 231.918 91.2335C230.911 90.6795 230.122 89.9004 229.548 88.8929C228.973 87.8889 228.688 86.7236 228.685 85.4072C228.685 84.0707 228.963 82.8819 229.527 81.8409C230.092 80.7999 230.871 79.9872 231.868 79.4063C232.865 78.8253 234.041 78.5331 235.394 78.5298C236.66 78.5298 237.782 78.8052 238.752 79.3592C239.726 79.9133 240.485 80.6723 241.032 81.636C241.58 82.5998 241.855 83.6711 241.855 84.8498C241.855 85.0412 241.852 85.2393 241.842 85.4475C241.832 85.6557 241.822 85.874 241.805 86.099L231.992 86.1091C232.063 87.1165 232.415 87.9057 233.05 88.4765C233.685 89.0474 234.454 89.3328 235.354 89.3328C236.032 89.3328 236.6 89.1784 237.06 88.8761C237.52 88.5739 237.862 88.1777 238.087 87.6907H241.472C241.231 88.5034 240.828 89.2455 240.263 89.9138C239.699 90.5821 239.007 91.1093 238.181 91.4921C237.359 91.875 236.425 92.0664 235.384 92.0664L235.381 92.063ZM235.394 81.2364C234.578 81.2364 233.859 81.4681 233.235 81.9282C232.61 82.3883 232.211 83.0868 232.039 84.0237L238.47 84.017C238.416 83.1673 238.104 82.489 237.53 81.9886C236.956 81.4849 236.244 81.2364 235.394 81.2364Z" fill="#D94D14"/>
<path d="M249.35 92.063C248.205 92.063 247.198 91.875 246.331 91.5022C245.465 91.1294 244.77 90.6123 244.249 89.9541C243.729 89.2959 243.417 88.5303 243.312 87.6639H246.671C246.775 88.1676 247.057 88.5974 247.517 88.9534C247.977 89.3093 248.571 89.4873 249.3 89.4873C250.029 89.4873 250.563 89.3396 250.902 89.0441C251.241 88.7485 251.409 88.4094 251.409 88.0299C251.409 87.4758 251.167 87.0963 250.68 86.8982C250.193 86.7001 249.518 86.5053 248.649 86.3139C248.094 86.193 247.53 86.0453 246.956 85.8706C246.382 85.696 245.858 85.4777 245.381 85.2057C244.904 84.9371 244.518 84.5912 244.223 84.1647C243.927 83.7382 243.779 83.2144 243.779 82.5897C243.779 81.4446 244.236 80.4808 245.146 79.7018C246.056 78.9193 247.336 78.5298 248.984 78.5298C250.512 78.5298 251.731 78.8857 252.641 79.5977C253.551 80.3096 254.095 81.2902 254.267 82.5394H251.117C250.925 81.5857 250.207 81.1088 248.957 81.1088C248.333 81.1088 247.853 81.2297 247.514 81.4749C247.174 81.7166 247.006 82.0222 247.006 82.3849C247.006 82.7476 247.258 83.07 247.762 83.295C248.266 83.5199 248.934 83.7281 249.767 83.9196C250.67 84.1278 251.496 84.3595 252.252 84.608C253.007 84.8598 253.608 85.2326 254.062 85.7262C254.512 86.2199 254.74 86.9284 254.74 87.8486C254.757 88.6478 254.549 89.3664 254.116 90.0078C253.682 90.6492 253.058 91.153 252.242 91.519C251.426 91.885 250.462 92.0664 249.354 92.0664L249.35 92.063Z" fill="white"/>
<path d="M263.304 92.0629C262.001 92.0629 260.849 91.7842 259.841 91.2301C258.834 90.676 258.045 89.8935 257.474 88.8861C256.9 87.8787 256.614 86.7168 256.614 85.397C256.614 84.0773 256.896 82.8717 257.461 81.8307C258.025 80.7897 258.804 79.977 259.804 79.3961C260.802 78.8151 261.977 78.5229 263.33 78.5229C264.597 78.5229 265.715 78.8017 266.689 79.3558C267.659 79.9099 268.418 80.6688 268.965 81.6326C269.513 82.5963 269.785 83.6676 269.785 84.8463C269.785 85.0377 269.781 85.2358 269.771 85.444C269.761 85.6522 269.748 85.8705 269.731 86.0955H259.919C259.989 87.1029 260.338 87.8921 260.973 88.463C261.608 89.0372 262.373 89.3227 263.277 89.3227C263.955 89.3227 264.523 89.1715 264.983 88.866C265.443 88.5637 265.785 88.1675 266.01 87.6805H269.395C269.153 88.4966 268.747 89.2387 268.186 89.907C267.622 90.5752 266.927 91.0991 266.104 91.4819C265.278 91.8648 264.348 92.0562 263.307 92.0562L263.304 92.0629ZM263.33 81.2363C262.514 81.2363 261.796 81.468 261.171 81.9247C260.547 82.3848 260.147 83.0833 259.972 84.0202H266.403C266.349 83.1706 266.037 82.4922 265.466 81.9885C264.892 81.4848 264.183 81.2329 263.33 81.2329V81.2363Z" fill="white"/>
<path d="M271.944 91.7506V78.8387H274.912L275.225 81.2599C275.695 80.4271 276.33 79.7622 277.139 79.2685C277.945 78.7749 278.895 78.5264 279.99 78.5264V82.039H279.053C278.324 82.039 277.673 82.1531 277.102 82.3781C276.528 82.6031 276.081 82.9927 275.762 83.5501C275.44 84.1042 275.282 84.8766 275.282 85.8672V91.7506H271.951H271.944Z" fill="white"/>
<path d="M285.534 91.7508L280.796 78.8389H284.285L287.566 88.6009L290.847 78.8389H294.336L289.571 91.7508H285.534Z" fill="white"/>
<path d="M301.438 92.0629C300.135 92.0629 298.983 91.7842 297.976 91.2301C296.968 90.676 296.179 89.8935 295.608 88.8861C295.034 87.8787 294.749 86.7168 294.749 85.397C294.749 84.0773 295.031 82.8717 295.595 81.8307C296.159 80.7897 296.938 79.977 297.939 79.3961C298.936 78.8151 300.111 78.5229 301.465 78.5229C302.731 78.5229 303.849 78.8017 304.823 79.3558C305.793 79.9099 306.552 80.6688 307.1 81.6326C307.647 82.5963 307.919 83.6676 307.919 84.8463C307.919 85.0377 307.916 85.2358 307.906 85.444C307.896 85.6522 307.882 85.8705 307.865 86.0955H298.053C298.123 87.1029 298.473 87.8921 299.107 88.463C299.742 89.0372 300.508 89.3227 301.411 89.3227C302.089 89.3227 302.657 89.1715 303.117 88.866C303.577 88.5637 303.92 88.1675 304.145 87.6805H307.53C307.288 88.4966 306.881 89.2387 306.321 89.907C305.756 90.5752 305.061 91.0991 304.239 91.4819C303.412 91.8648 302.482 92.0562 301.441 92.0562L301.438 92.0629ZM301.465 81.2363C300.649 81.2363 299.93 81.468 299.306 81.9247C298.681 82.3848 298.281 83.0833 298.107 84.0202H304.537C304.484 83.1706 304.171 82.4922 303.601 81.9885C303.026 81.4848 302.318 81.2329 301.465 81.2329V81.2363Z" fill="white"/>
</svg>
