<svg width="449" height="394" viewBox="0 0 449 394" fill="none" xmlns="http://www.w3.org/2000/svg">
<path d="M315.412 262.456V238H420.717V262.456H382.939V362.589H353.251V262.456H315.412Z" fill="#333333"/>
<path d="M184.412 362.589V238H271.284V262.456H214.525V288.006H266.843V312.522H214.525V338.134H271.284V362.589H184.412Z" fill="#333333"/>
<path d="M29.4124 362.589V238H59.5255V290.683H61.168L102.353 238H137.82L93.6537 293.603L138.611 362.589H102.596L71.5708 313.617L59.5255 328.826V362.589H29.4124Z" fill="#333333"/>
<path d="M319.257 155.589V31H370.723C380.051 31 388.102 32.6831 394.875 36.0493C401.688 39.3749 406.94 44.1606 410.631 50.4062C414.322 56.6114 416.167 63.9724 416.167 72.4892C416.167 81.1277 414.281 88.4685 410.509 94.5114C406.738 100.514 401.384 105.097 394.449 108.26C387.514 111.383 379.301 112.944 369.811 112.944H337.264V89.2187H364.214C368.756 89.2187 372.548 88.6307 375.59 87.4545C378.672 86.2378 381.004 84.4128 382.586 81.9794C384.168 79.5055 384.959 76.3421 384.959 72.4892C384.959 68.6364 384.168 65.4527 382.586 62.9382C381.004 60.3831 378.672 58.477 375.59 57.2197C372.508 55.9219 368.716 55.273 364.214 55.273H349.37V155.589H319.257ZM389.4 98.6481L420.425 155.589H387.575L357.157 98.6481H389.4Z" fill="#333333"/>
<path d="M214.044 155.589H181.68L223.716 31H263.806L305.843 155.589H273.479L244.218 62.3907H243.244L214.044 155.589ZM209.724 106.557H277.373V129.43H209.724V106.557Z" fill="#333333"/>
<path d="M29 31H66.2916L97.9256 108.138H99.3857L131.02 31H168.311V155.589H138.989V79.0594H137.955L108.024 154.798H89.2871L59.3565 78.6335H58.3223V155.589H29V31Z" fill="#333333"/>
<rect x="6" y="6" width="437" height="382" stroke="black" stroke-width="12"/>
</svg>
