<svg width="125" height="115" viewBox="0 0 125 115" fill="none" xmlns="http://www.w3.org/2000/svg">
<path d="M2.97803 51.1611C-3.83658 62.6611 1.98206 75.9124 10.9785 79.6611C19.975 83.4097 108.979 75.1611 119.475 64.6611C119.475 64.6611 130.475 45.1611 119.475 33.6611C108.475 22.1611 95.9785 20.6611 95.9785 20.6611C95.9785 20.6611 84.4785 -4.3388 52.9785 0.661144C21.4785 5.66109 22.9785 40.6611 22.9785 40.6611C22.9785 40.6611 9.79264 39.6611 2.97803 51.1611Z" fill="#DB0408"/>
<circle cx="64.4785" cy="68.6611" r="46" fill="white"/>
<path d="M97.8117 68.6611C97.8117 87.0706 82.8878 101.994 64.4784 101.994C46.0689 101.994 31.145 87.0706 31.145 68.6611C31.145 50.2516 46.0689 35.3278 64.4784 35.3278C82.8878 35.3278 97.8117 50.2516 97.8117 68.6611ZM42.2138 68.6611C42.2138 80.9574 52.182 90.9256 64.4784 90.9256C76.7747 90.9256 86.7429 80.9574 86.7429 68.6611C86.7429 56.3647 76.7747 46.3966 64.4784 46.3966C52.182 46.3966 42.2138 56.3647 42.2138 68.6611Z" fill="#DB0408"/>
<path d="M45.479 49.9945L82.479 87.9945" stroke="#DB0408" stroke-width="8.66667"/>
</svg>
