<svg width="128" height="118" viewBox="0 0 128 118" fill="none" xmlns="http://www.w3.org/2000/svg">
<path d="M9.11932 96.0412L54.7387 16.2072C58.8336 9.04118 69.1664 9.04118 73.2613 16.2072L118.881 96.0412C122.944 103.152 117.81 112 109.619 112H18.3806C10.1905 112 5.05589 103.152 9.11932 96.0412Z" fill="#DB0408"/>
<path d="M69.7572 38.0278L68.6215 79.7867H57.9633L56.7985 38.0278H69.7572ZM63.2924 98.4239C61.3704 98.4239 59.7203 97.7444 58.3419 96.3854C56.9635 95.0071 56.284 93.3569 56.3035 91.4349C56.284 89.5324 56.9635 87.9016 58.3419 86.5427C59.7203 85.1837 61.3704 84.5042 63.2924 84.5042C65.1367 84.5042 66.7577 85.1837 68.1555 86.5427C69.5533 87.9016 70.2619 89.5324 70.2813 91.4349C70.2619 92.7162 69.9222 93.8908 69.2621 94.9585C68.6215 96.0069 67.777 96.8514 66.7286 97.492C65.6803 98.1133 64.5349 98.4239 63.2924 98.4239Z" fill="white"/>
</svg>
